<svg viewBox="0 0 24.25 24.25" id="block-grain"><path d="M12.54 3.39s-3.717 3.083 0 6.8c3.716-3.717 0-6.8 0-6.8zm5.452 5.33s-3.903-1.49-5.123 2.89c4.38 1.22 5.12-2.89 5.12-2.89z" fill="currentColor"></path><path d="M17.992 12.3s-3.903-1.49-5.123 2.892c4.38 1.218 5.12-2.892 5.12-2.892zM7.107 8.72s3.903-1.49 5.123 2.89c-4.38 1.22-5.123-2.89-5.123-2.89z" fill="currentColor"></path><path d="M7.107 12.3s3.903-1.49 5.123 2.892C7.85 16.41 7.107 12.3 7.107 12.3zm4.743 3.66h1.454v3.543h-1.456z" fill="currentColor"></path><path d="M4.01 3.302L20.947 20.24l-.707.707L3.303 4.01z"></path><path d="M12.125 24.25C5.44 24.25 0 18.81 0 12.125S5.44 0 12.125 0 24.25 5.44 24.25 12.125 18.81 24.25 12.125 24.25zm0-23.25C5.99 1 1 5.99 1 12.125S5.99 23.25 12.125 23.25 23.25 18.26 23.25 12.125 18.26 1 12.125 1z"></path></svg>