<svg viewBox="0 0 850.4 850.4" id="info"><g fill="#8d8c8c"><path d="M692 154C618.6 80.5 522.3 43.8 426 43.8S233.4 80.5 160 154C13 300.9 13 539.1 160 686c73.5 73.5 169.8 110.2 266 110.2S618.6 759.5 692 686c147-146.9 147-385.1 0-532zm-41.5 490.5c-60 60-139.7 93-224.5 93-84.8 0-164.5-33-224.5-93-123.8-123.8-123.8-325.2 0-448.9 60-60 139.7-93 224.5-93 84.8 0 164.5 33 224.5 93 59.9 60 93 139.7 93 224.5-.1 84.7-33.1 164.4-93 224.4z"></path><path d="M426 220.1c-30.4 0-55 24.6-55 55s24.6 55 55 55 55-24.6 55-55c0-30.3-24.6-55-55-55zM375.8 371.6h100.4v248.3H375.8z"></path></g></svg>