<svg viewBox="0 0 179 38" fill="none" id="barbora-logo"><path fill-rule="evenodd" clip-rule="evenodd" d="M125.55 25.162c0-7.683-5.774-13.26-12.886-13.26v-.01c-7.118 0-12.85 5.573-12.85 13.26 0 7.687 5.74 13.267 12.85 13.267 7.112 0 12.886-5.574 12.886-13.258zm-5.134-.02c0 4.887-3.19 8.264-7.752 8.264v.02c-4.533 0-7.715-3.333-7.715-8.25 0-4.918 3.152-8.27 7.714-8.27 4.563 0 7.752 3.35 7.752 8.236zm-106.19-1.066v.04c2.363.545 4.802 3.202 4.802 6.145 0 4.3-2.784 7.65-8.628 7.65H0V14.174c.004-.966.764-1.747 1.702-1.748h8.56c4.386 0 7.395 2.882 7.395 6.59 0 2.445-1.772 4.552-3.43 5.06zm-4.956-7.36H4.923l-.003 5.868h4.35c2.02 0 3.435-1.31 3.435-2.954 0-1.704-1.414-2.913-3.435-2.913zm.674 16.922H4.92v-7.154h4.978c2.233 0 3.982 1.42 3.982 3.565 0 2.144-1.603 3.588-3.936 3.588zm59.633-12.69c0 3.494-1.68 6.045-4.69 7.315l5.663 9.64h-5.516l-4.92-8.704H56.08v8.71h-4.92V14.174c-.003-.47.178-.92.5-1.252.324-.33.763-.514 1.22-.51h6.968c6.08 0 9.73 3.416 9.73 8.538zm-9.108 3.75H56.08V17.16h4.387c2.687 0 3.98 1.787 3.98 3.788.017 1.93-1.257 3.75-3.98 3.75zm89.297-3.75c0 3.494-1.662 6.045-4.665 7.315l5.65 9.654h-5.514L140.31 29.2h-4.032v8.71h-4.908V14.174a1.772 1.772 0 0 1 .494-1.246c.32-.33.755-.517 1.208-.516h6.97c6.075 0 9.725 3.416 9.725 8.538zm-9.09 3.75h-4.398V17.16h4.383c2.694 0 4 1.787 4 3.788.012 1.93-1.262 3.75-3.987 3.75zm-49.957-.583v-.04c1.66-.507 3.43-2.614 3.43-5.06 0-3.708-3.006-6.59-7.393-6.59h-8.55a1.675 1.675 0 0 0-1.21.508c-.32.328-.5.774-.5 1.24V37.91H86.9c5.834 0 8.628-3.35 8.628-7.65 0-2.945-2.437-5.604-4.81-6.145zm-9.295-7.398h4.354c2.013 0 3.43 1.21 3.43 2.913 0 1.643-1.417 2.954-3.43 2.954H81.41l.013-5.867zm-.013 16.92h5.027c2.332 0 3.912-1.443 3.912-3.588s-1.733-3.566-3.963-3.566h-4.978v7.154zm-44.27-19.983a1.702 1.702 0 0 0-1.622-1.226h-2.356a1.702 1.702 0 0 0-1.57 1.062l-9.77 24.427h5.31l1.835-4.887h10.74l1.84 4.887h5.31l-9.717-24.263zm-4.022 8.46l-2.44 6.443H38l-2.44-6.444c-.33-.867-.692-1.99-.933-2.736-.154-.475-.257-.795-.27-.795h-.033c-.016 0-.14.384-.32.936-.24.74-.58 1.78-.882 2.595zm136.127-8.58a1.7 1.7 0 0 0-1.58-1.106H165.3c-.694.003-1.318.44-1.575 1.106l-9.746 24.383h5.308l1.84-4.887h10.72l1.842 4.887H179l-9.753-24.383zm-3.978 8.58l-2.443 6.443h7.323l-2.442-6.444a64.963 64.963 0 0 1-.942-2.765c-.15-.46-.248-.766-.26-.766h-.036c-.017 0-.142.387-.322.942-.24.74-.576 1.777-.88 2.59z" fill="#D83738"></path><path d="M76.493 10.062S75.316 1.43 86.353 0c0 0-.598 8.82-9.86 10.062z" fill="#42B255"></path></svg>