<svg viewBox="0 0 28 26" id="basket"><path fill="#494949" d="M21.726 24.99H6.276c-1.068 0-2.13-.812-2.42-1.848L.593 11.434C.43 10.85.53 10.26.863 9.812c.337-.447.874-.703 1.476-.703h23.32c.6 0 1.13.25 1.47.7.33.44.43 1.04.27 1.62l-3.26 11.71c-.29 1.03-1.35 1.84-2.42 1.84zM2.258 10.883l.02.072 3.264 11.71c.08.282.442.56.734.56h15.45c.29 0 .655-.277.733-.56l3.26-11.71.01-.082H2.34l-.082.01zm18.447-.316a.875.875 0 0 1-.76-.444l-4.428-7.79a.886.886 0 0 1 .324-1.205.878.878 0 0 1 1.2.326l4.43 7.79c.24.425.1.964-.32 1.206a.85.85 0 0 1-.433.117zm-13.41 0a.888.888 0 0 1-.766-1.322l4.43-7.79a.865.865 0 0 1 1.19-.327c.42.242.56.78.32 1.204l-4.43 7.79a.87.87 0 0 1-.76.445zm1.635 10.52a.878.878 0 0 1-.875-.88v-6.024c0-.488.39-.883.875-.883a.88.88 0 0 1 .874.883v6.023a.88.88 0 0 1-.874.882zm5.07 0a.878.878 0 0 1-.875-.88v-6.024A.88.88 0 0 1 14 13.3a.88.88 0 0 1 .875.883v6.023a.88.88 0 0 1-.875.882zm5.07 0a.878.878 0 0 1-.874-.88v-6.024a.88.88 0 0 1 .874-.883.88.88 0 0 1 .875.883v6.023c0 .486-.39.882-.875.882z"></path></svg>